<svg viewBox="0 0 909 1286" version="1.1" xmlns="http://www.w3.org/2000/svg">
<defs>
<clipPath id="c0"><path d="M-.2 1284.1V-.2H909.1V1284.1Z"/></clipPath>
<clipPath id="c1"><path d="M114.2 185.4c-41.7 0-75.4-33.8-75.4-75.4v-.4c0-41.6 33.7-75.4 75.4-75.4h.3c41.6 0 75.4 33.8 75.4 75.4v.4c0 41.6-33.8 75.4-75.4 75.4Z"/></clipPath>
<style>
.g0{fill:#FFF;}
.g1{fill:#000;}
.g2{fill:#313C4E;}
.g3{fill:#B2B2B2;}
.g4{fill:#D3D3D3;}
</style>
</defs>
<path clip-path="url(#c0)" d="M0 0H908.8V1283.8H0V0Z" class="g0"/>
<path d="M0 226.6H908.8V228H0v-1.4Z" class="g1"/>
<path d="M0 346.3H908.8v1.4H0v-1.4Z" class="g1"/>
<path d="M49.4 251.3c-.4 0-.7-.1-1-.4l-8-7.9v11c0 .8 .6 1.4 1.3 1.5l4.5-4.6c.2-.2 .5-.2 .7 0c.2 .2 .2 .5 0 .7L43 255.5H55.8l-3.9-3.9c-.2-.2-.2-.5 0-.7c.2-.2 .5-.2 .7 0l4.5 4.5c.7 0 1.3-.6 1.3-1.4V243l-8 7.9c-.3 .3-.6 .4-1 .4Z" class="g2"/>
<path d="M49.7 250.3l8.4-8.4c-.3-.3-.7-.5-1.1-.5H41.8c-.4 0-.8 .2-1.1 .5l8.4 8.4c.2 .1 .5 .1 .6 0Z" class="g2"/>
<path d="M490.5 254.1c0 .2-.2 .5-.5 .5c-.3 0-.5-.3-.5-.5c0-.3 .2-.5 .5-.5c.3 0 .5 .2 .5 .5Z" class="g2"/>
<path d="M494.3 239.4h-8.5c-.8 0-1.4 .7-1.4 1.4V256c0 .8 .6 1.4 1.4 1.4h8.5c.7 0 1.4-.6 1.4-1.4V240.8c0-.7-.7-1.4-1.4-1.4ZM490 255.5c-.8 0-1.4-.6-1.4-1.4c0-.8 .6-1.4 1.4-1.4c.8 0 1.4 .6 1.4 1.4c0 .8-.6 1.4-1.4 1.4Zm1.4-12.3h-2.8c-.3 0-.5-.2-.5-.5c0-.2 .2-.4 .5-.4h2.8c.2 0 .4 0 .5 .2c0 .1 0 .3 0 .5c-.1 .1-.3 .2-.5 .2Z" class="g2"/>
<path d="M49.5 273.1c-.8 0-1.5 .7-1.5 1.6c0 .8 .7 1.5 1.5 1.5c.9 0 1.6-.7 1.6-1.5c0-.9-.7-1.6-1.6-1.6Z" class="g2"/>
<path d="M49.5 269.8c-2.6 0-4.7 2.1-4.7 4.7c0 4.1 1.5 9.9 4 12.7c.2 .2 .5 .3 .7 .3c.3 0 .5-.1 .7-.3c2.5-2.8 4-8.6 4-12.7c0-2.6-2.1-4.7-4.7-4.7Zm0 7.4c-1.4 0-2.5-1.1-2.5-2.5c0-1.4 1.1-2.5 2.5-2.5c1.4 0 2.5 1.1 2.5 2.5c0 1.4-1.1 2.5-2.5 2.5Z" class="g2"/>
<path d="M496.9 270.8H483.2c-.4 0-.7 .1-.9 .3c-.2 .2-.3 .5-.3 .8v13.7c0 .4 .1 .7 .3 .9c.2 .2 .5 .3 .9 .3h13.7c.3 0 .6-.1 .8-.3c.2-.2 .4-.5 .4-.9V271.9c0-.3-.2-.6-.4-.8c-.2-.2-.5-.3-.8-.3Zm-10.2 13.7h-2.4v-7.7h2.4v7.7Zm-1.2-8.8c-.7 0-1.3-.6-1.3-1.3c0-.8 .6-1.4 1.3-1.4c.8 0 1.4 .6 1.4 1.4c0 .7-.6 1.3-1.4 1.3Zm10.2 8.8h-2.4v-3.8c0-.9 0-2-1.2-2c-1.3 0-1.5 1-1.5 2v3.8h-2.4v-7.7h2.3v1h.1c.4-.8 1.3-1.2 2.2-1.2c2.4 0 2.9 1.6 2.9 3.7v4.2Z" class="g2"/>
<path fill-rule="evenodd" d="M49.4 317.4c-4.2 0-7.7 3-8.4 7.2c-.7 4.1 1.8 8.1 5.7 9.4c.4 .1 .6-.2 .6-.4c0-.2 0-.8 0-1.5c-2.4 .6-2.9-1.1-2.9-1.1c-.1-.5-.5-1-.9-1.2c-.8-.6 0-.6 0-.6c.6 .1 1.1 .4 1.3 .9c.3 .4 .7 .7 1.1 .9c.5 .1 1 .1 1.4-.2c0-.4 .2-.8 .6-1.1c-1.9-.2-3.9-1-3.9-4.2c0-.9 .3-1.7 .8-2.3c-.2-.7-.2-1.5 .1-2.3c0 0 .7-.2 2.4 .9c1.4-.4 2.8-.4 4.2 0c1.7-1.1 2.4-.9 2.4-.9c.3 .8 .3 1.6 .1 2.3c.5 .6 .8 1.4 .8 2.3c0 3.2-2 4-3.9 4.2c.5 .4 .7 1 .6 1.6c0 1.1 0 2 0 2.3c0 .2 .2 .5 .6 .4c4-1.3 6.4-5.3 5.7-9.4c-.7-4.2-4.2-7.2-8.4-7.2Z" class="g2"/>
<path d="M38.1 795.8H44v1.5H38.1v-1.5Z" class="g2"/>
<path d="M38.1 922.6H44V924H38.1v-1.4Z" class="g2"/>
<path d="M38.1 1008.5H44v1.4H38.1v-1.4Z" class="g2"/>
<path d="M38.1 1108H44v1.4H38.1V1108Z" class="g2"/>
<path d="M38.1 1193.9H44v1.4H38.1v-1.4Z" class="g2"/>
<path d="M38.1 1238.9H44v1.4H38.1v-1.4Z" class="g2"/>
<path fill-rule="evenodd" d="M486.4 844.9H858.9c2.5 0 4.5 2.1 4.5 4.6v36.3c0 2.5-2 4.5-4.5 4.5H486.4c-2.6 0-4.6-2-4.6-4.5V849.5c0-2.5 2-4.6 4.6-4.6Zm0 1.4H858.9c1.7 0 3.1 1.4 3.1 3.2v36.3c0 1.7-1.4 3.1-3.1 3.1H486.4c-1.8 0-3.2-1.4-3.2-3.1V849.5c0-1.8 1.4-3.2 3.2-3.2Z" class="g3"/>
<path fill-rule="evenodd" d="M486.4 896.2H858.9c2.5 0 4.5 2.1 4.5 4.6v36.3c0 2.5-2 4.5-4.5 4.5H486.4c-2.6 0-4.6-2-4.6-4.5V900.8c0-2.5 2-4.6 4.6-4.6Zm0 1.4H858.9c1.7 0 3.1 1.4 3.1 3.2v36.3c0 1.7-1.4 3.1-3.1 3.1H486.4c-1.8 0-3.2-1.4-3.2-3.1V900.8c0-1.8 1.4-3.2 3.2-3.2Z" class="g3"/>
<path fill-rule="evenodd" d="M486.4 947.6H841.8c2.5 0 4.5 2 4.5 4.5v19.6c0 2.5-2 4.5-4.5 4.5H486.4c-2.6 0-4.6-2-4.6-4.5V952.1c0-2.5 2-4.5 4.6-4.5Zm0 1.4H841.8c1.7 0 3.1 1.4 3.1 3.1v19.6c0 1.7-1.4 3.1-3.1 3.1H486.4c-1.8 0-3.2-1.4-3.2-3.1V952.1c0-1.7 1.4-3.1 3.2-3.1Z" class="g3"/>
<path fill-rule="evenodd" d="M486.4 982.1H858.9c2.5 0 4.5 2.1 4.5 4.6V1023c0 2.5-2 4.5-4.5 4.5H486.4c-2.6 0-4.6-2-4.6-4.5V986.7c0-2.5 2-4.6 4.6-4.6Zm0 1.4H858.9c1.7 0 3.1 1.4 3.1 3.2V1023c0 1.7-1.4 3.1-3.1 3.1H486.4c-1.8 0-3.2-1.4-3.2-3.1V986.7c0-1.8 1.4-3.2 3.2-3.2Z" class="g3"/>
<path fill-rule="evenodd" d="M486.4 1033.5H858.9c2.5 0 4.5 2 4.5 4.5v36.3c0 2.5-2 4.5-4.5 4.5H486.4c-2.6 0-4.6-2-4.6-4.5V1038c0-2.5 2-4.5 4.6-4.5Zm0 1.3H858.9c1.7 0 3.1 1.5 3.1 3.2v36.3c0 1.7-1.4 3.1-3.1 3.1H486.4c-1.8 0-3.2-1.4-3.2-3.1V1038c0-1.7 1.4-3.2 3.2-3.2Z" class="g3"/>
<path fill-rule="evenodd" d="M486.4 1084.8H858.9c2.5 0 4.5 2 4.5 4.5v36.3c0 2.5-2 4.6-4.5 4.6H486.4c-2.6 0-4.6-2.1-4.6-4.6v-36.3c0-2.5 2-4.5 4.6-4.5Zm0 1.4H858.9c1.7 0 3.1 1.4 3.1 3.1v36.3c0 1.8-1.4 3.2-3.1 3.2H486.4c-1.8 0-3.2-1.4-3.2-3.2v-36.3c0-1.7 1.4-3.1 3.2-3.1Z" class="g3"/>
<path fill-rule="evenodd" d="M486.4 1136.1H747.5c2.5 0 4.5 2 4.5 4.5v19.6c0 2.5-2 4.5-4.5 4.5H486.4c-2.6 0-4.6-2-4.6-4.5v-19.6c0-2.5 2-4.5 4.6-4.5Zm0 1.4H747.5c1.7 0 3.1 1.4 3.1 3.1v19.6c0 1.7-1.4 3.1-3.1 3.1H486.4c-1.8 0-3.2-1.4-3.2-3.1v-19.6c0-1.7 1.4-3.1 3.2-3.1Z" class="g3"/>
<path fill-rule="evenodd" d="M486.4 1170.7H764.3c2.5 0 4.5 2 4.5 4.5v19.6c0 2.5-2 4.5-4.5 4.5H486.4c-2.6 0-4.6-2-4.6-4.5v-19.6c0-2.5 2-4.5 4.6-4.5Zm0 1.4H764.3c1.7 0 3.1 1.4 3.1 3.1v19.6c0 1.7-1.4 3.1-3.1 3.1H486.4c-1.8 0-3.2-1.4-3.2-3.1v-19.6c0-1.7 1.4-3.1 3.2-3.1Z" class="g3"/>
<path fill-rule="evenodd" d="M114.2 33.5h.3c42 0 76.1 34.1 76.1 76.1v.4c0 42-34.1 76.1-76.1 76.1h-.3c-42 0-76.1-34.1-76.1-76.1v-.4c0-42 34.1-76.1 76.1-76.1Zm0 .7h.3c41.6 0 75.4 33.8 75.4 75.4v.4c0 41.6-33.8 75.4-75.4 75.4h-.3c-41.7 0-75.4-33.8-75.4-75.4v-.4c0-41.6 33.7-75.4 75.4-75.4Z" class="g4"/>
<image clip-path="url(#c1)" preserveAspectRatio="none" x="39" y="34" width="151" height="151" href="img/1.jpg"/>
</svg>